<?xml version="1.0" encoding="UTF-8"?>
<svg width="54px" height="64px" viewBox="0 0 54 64" version="1.1" xmlns="http://www.w3.org/2000/svg" xmlns:xlink="http://www.w3.org/1999/xlink">
    <title>Logo</title>
    <g id="Page-1" stroke="none" stroke-width="1" fill="none" fill-rule="evenodd">
        <g id="Logo" fill-rule="nonzero">
            <polygon id="Path" fill="#FFFFFF" points="26.8818075 7.12615189 47.5921865 19.0832948 47.5921865 42.9975805 26.8818075 54.9547233 6.17142857 42.9975805 6.17142857 19.0832948"></polygon>
            <path d="M26.8818075,0 L53.763615,15.5202188 L53.763615,46.5606564 L26.8818075,62.0808752 L0,46.5606564 L0,15.5202188 L26.8818075,0 Z M27.465,7.463 L22.1305088,42.6118662 L13.7675218,42.6118662 L18.359,12.046 L6.17142857,19.0832948 L6.17142857,42.9975805 L26.8818075,54.9547233 L47.5921865,42.9975805 L47.5921865,19.0832948 L27.465,7.463 Z M35.606556,17.9261519 C36.4757713,17.9261519 37.1494131,18.1828491 37.6274816,18.6962435 C38.10555,19.2096379 38.3445842,19.8513809 38.3445842,20.6214725 C38.3445842,21.8193928 37.9389504,22.9317473 37.1276828,23.9585361 C35.8238598,25.6413289 33.6363347,27.1957731 30.5651073,28.6218687 L30.5651073,28.6218687 L34.5634977,36.5366991 L34.6952381,36.7649858 C35.0058015,37.2812769 35.338548,37.6829234 35.6934775,37.9699251 C36.0991113,38.2979271 36.4757713,38.4619281 36.8234574,38.4619281 C37.1131958,38.4619281 37.5043427,38.3763623 37.9968981,38.2052309 C38.4894534,38.0340994 38.924061,37.8059241 39.300721,37.520705 L39.300721,37.520705 L39.9960932,38.9753225 L39.8297954,39.1751244 C39.1945842,39.9082762 38.279393,40.6474195 37.084222,41.3925545 C35.7803991,42.2054289 34.3461938,42.6118662 32.7816063,42.6118662 C31.6226526,42.6118662 30.71722,42.3979518 30.0653085,41.9701232 C29.4133971,41.5422945 28.9280852,40.9290734 28.6093729,40.1304599 L28.6093729,40.1304599 L24.5675218,29.477526 L24.9853971,29.2561247 C26.2149021,28.5951294 27.2273206,27.9630125 28.0226526,27.3597741 C28.9063548,26.6895092 29.9131958,25.627068 31.0431757,24.1724505 C31.7964956,23.1741836 32.1731556,22.0333071 32.1731556,20.7498211 C32.1731556,19.7230323 32.5208417,18.9957236 33.216214,18.5678949 C33.9115862,18.1400662 34.7083669,17.9261519 35.606556,17.9261519 Z" id="Combined-Shape" fill="#000000"></path>
        </g>
    </g>
</svg>