<svg width="54" height="54" viewBox="0 0 54 54" fill="none" xmlns="http://www.w3.org/2000/svg">
<path d="M49.9743 44.7191C48.9351 44.7191 48.0443 44.348 47.302 43.6057C46.5597 42.8634 46.1886 41.9727 46.1886 40.9334C46.1886 39.8348 46.5746 38.9293 47.3466 38.2167C48.1186 37.5041 48.9945 37.1478 49.9743 37.1478C50.9541 37.1478 51.83 37.5041 52.602 38.2167C53.374 38.9293 53.76 39.8348 53.76 40.9334C53.76 41.9727 53.3888 42.8634 52.6465 43.6057C51.9043 44.348 51.0135 44.7191 49.9743 44.7191Z" fill="#6F7259"/>
<path d="M35.8343 44.7191C35.0623 44.7191 34.4833 44.6894 34.0973 44.6301C33.7113 44.5707 33.3402 44.4964 32.9839 44.4074C32.6573 44.3183 32.2119 44.2441 31.6478 44.1847C31.0836 44.1253 30.2226 44.0956 29.0646 44.0956L27.9957 35.7225H28.5747C29.0497 38.5136 29.9405 40.6217 31.2469 42.0469C32.5534 43.4424 33.9786 44.1401 35.5225 44.1401C37.0368 44.1401 38.1799 43.8284 38.9519 43.2049C39.7536 42.5813 40.1545 41.7351 40.1545 40.6662C40.1545 39.9833 39.9763 39.3895 39.62 38.8847C39.2934 38.3503 38.7144 37.8158 37.883 37.2814C37.0517 36.7172 35.9234 36.0492 34.4982 35.2772L33.2066 34.5646C31.5735 33.6441 30.3562 32.5752 29.5545 31.3579C28.7825 30.1108 28.3965 28.7747 28.3965 27.3495C28.3965 25.3304 29.124 23.7419 30.5789 22.584C32.0635 21.426 34.038 20.847 36.5024 20.847C37.1259 20.847 37.6307 20.8767 38.0166 20.9361C38.4026 20.9955 38.7738 21.0697 39.1301 21.1588C39.4864 21.2478 39.9318 21.3221 40.4662 21.3814C41.0007 21.4408 41.7133 21.4705 42.604 21.4705L43.2275 28.6411H42.6931C42.5149 27.2456 42.1141 26.0134 41.4906 24.9445C40.8967 23.8459 40.1841 22.9996 39.3528 22.4058C38.5214 21.7823 37.6752 21.4705 36.8141 21.4705C35.6858 21.4705 34.7802 21.7674 34.0973 22.3613C33.4441 22.9551 33.1175 23.7865 33.1175 24.8554C33.1175 25.6571 33.3699 26.3993 33.8747 27.0823C34.4091 27.7355 35.4186 28.4481 36.9032 29.2201L38.2393 29.8881C40.3178 30.957 41.832 32.0705 42.7822 33.2284C43.7323 34.3864 44.2074 35.871 44.2074 37.6822C44.2074 42.3141 41.4163 44.6598 35.8343 44.7191Z" fill="#6F7259"/>
<path d="M-3.8147e-06 44.0956V43.6502H0.0445338C1.11344 43.6502 1.9745 43.3236 2.62771 42.6704C3.28093 42.0172 3.60754 41.1561 3.60754 40.0872V14.7008C3.60754 13.6319 3.26609 12.7708 2.58318 12.1176C1.92996 11.4644 1.0689 11.1378 -3.8147e-06 11.1378V10.6924H4.54283C6.05711 10.6924 7.21508 10.5291 8.01676 10.2025C8.75905 9.87591 9.27866 9.47507 9.57558 9H10.021V32.4268L17.5923 26.0579C18.8097 25.0484 19.5371 24.1428 19.7747 23.3411C19.9528 22.5988 19.7598 22.1683 19.1957 22.0495L18.6167 21.9159V21.4705H25.2528V21.9159L24.8074 22.005C24.0948 22.1237 23.3525 22.4207 22.5806 22.8957C21.8383 23.3708 20.7545 24.2022 19.3293 25.3898L16.2562 27.973L25.1192 41.6015C25.6833 42.3438 26.1732 42.8783 26.5889 43.2049C27.0046 43.5018 27.4648 43.6502 27.9696 43.6502V44.0956H16.2117V43.6502C16.954 43.6502 17.4439 43.5909 17.6814 43.4721C17.9486 43.383 18.0823 43.19 18.0823 42.8931C18.0823 42.6259 17.9783 42.2844 17.7705 41.8687C17.6517 41.6312 17.5033 41.364 17.3251 41.0671C17.1767 40.7404 16.9837 40.3841 16.7461 39.9982L11.6688 31.8478L10.021 33.273V40.0872C10.021 41.1561 10.3476 42.0172 11.0008 42.6704C11.654 43.3236 12.5151 43.6502 13.584 43.6502H13.6285V44.0956H-3.8147e-06Z" fill="#6F7259"/>
</svg>
