<?xml version="1.0" encoding="utf-8"?>
<!-- Generator: Adobe Illustrator 16.0.4, SVG Export Plug-In . SVG Version: 6.00 Build 0)  -->
<!DOCTYPE svg PUBLIC "-//W3C//DTD SVG 1.1//EN" "http://www.w3.org/Graphics/SVG/1.1/DTD/svg11.dtd">
<svg version="1.1" id="Layer_1" xmlns="http://www.w3.org/2000/svg" xmlns:xlink="http://www.w3.org/1999/xlink" x="0px" y="0px"
	 width="76.769px" height="70.931px" viewBox="0 0 76.769 70.931" enable-background="new 0 0 76.769 70.931" xml:space="preserve">
<g>
	<path fill="#FFFFFF" stroke="#24AE5F" stroke-width="1.5" stroke-miterlimit="10" d="M0.75,7.074c0-4.045,2.294-5.324,5.125-5.324
		S11,3.029,11,7.074"/>
	
		<rect x="0.75" y="7.074" fill="#FFFFFF" stroke="#24AE5F" stroke-width="1.5" stroke-miterlimit="10" width="10.25" height="55.994"/>
	<line fill="none" stroke="#24AE5F" stroke-width="1.5132" stroke-miterlimit="10" x1="5.875" y1="7.074" x2="5.875" y2="58.341"/>
	<line fill="none" stroke="#24AE5F" stroke-width="1.5076" stroke-miterlimit="10" x1="3.45" y1="7.074" x2="3.45" y2="58.757"/>
	<line fill="none" stroke="#24AE5F" stroke-width="1.5088" stroke-miterlimit="10" x1="8.3" y1="7.074" x2="8.3" y2="58.841"/>
	<g>
		<path fill="#FFFFFF" stroke="#24AE5F" stroke-width="1.5" stroke-miterlimit="10" d="M11,63.957l-0.006,0.006
			c0,0.027,0.006,0.051,0.006,0.078V63.957z"/>
		<path fill="#FFFFFF" stroke="#24AE5F" stroke-width="1.5" stroke-miterlimit="10" d="M0.75,64.041
			c0-0.027,0.005-0.051,0.006-0.078L0.75,63.957V64.041z"/>
		<path fill="#FFFFFF" stroke="#24AE5F" stroke-width="1.5" stroke-miterlimit="10" d="M5.875,58.341
			c-2.811,0-5.088,1.633-5.119,5.621l5.119,5.832l5.119-5.832C10.963,59.974,8.686,58.341,5.875,58.341z"/>
	</g>
</g>
<g>
	
		<rect x="18.75" y="0.75" fill="#FFFFFF" stroke="#24AE5F" stroke-width="1.5" stroke-miterlimit="10" width="12.211" height="68.156"/>
	<line fill="none" stroke="#24AE5F" stroke-width="1.5" stroke-miterlimit="10" x1="24.855" y1="6.022" x2="30.987" y2="6.022"/>
	<line fill="none" stroke="#24AE5F" stroke-width="1.5" stroke-miterlimit="10" x1="24.855" y1="10.417" x2="30.987" y2="10.417"/>
	<line fill="none" stroke="#24AE5F" stroke-width="1.5" stroke-miterlimit="10" x1="24.855" y1="14.812" x2="30.987" y2="14.812"/>
	<line fill="none" stroke="#24AE5F" stroke-width="1.5" stroke-miterlimit="10" x1="24.855" y1="19.206" x2="30.987" y2="19.206"/>
	<line fill="none" stroke="#24AE5F" stroke-width="1.5" stroke-miterlimit="10" x1="24.855" y1="23.601" x2="30.987" y2="23.601"/>
	<line fill="none" stroke="#24AE5F" stroke-width="1.5" stroke-miterlimit="10" x1="24.855" y1="27.996" x2="30.987" y2="27.996"/>
	<line fill="none" stroke="#24AE5F" stroke-width="1.5" stroke-miterlimit="10" x1="24.855" y1="32.391" x2="30.987" y2="32.391"/>
	<line fill="none" stroke="#24AE5F" stroke-width="1.5" stroke-miterlimit="10" x1="24.855" y1="36.785" x2="30.987" y2="36.785"/>
	<line fill="none" stroke="#24AE5F" stroke-width="1.5" stroke-miterlimit="10" x1="24.855" y1="41.181" x2="30.987" y2="41.181"/>
	<line fill="none" stroke="#24AE5F" stroke-width="1.5" stroke-miterlimit="10" x1="24.855" y1="45.576" x2="30.987" y2="45.576"/>
	<line fill="none" stroke="#24AE5F" stroke-width="1.5" stroke-miterlimit="10" x1="24.855" y1="49.97" x2="30.987" y2="49.97"/>
	<line fill="none" stroke="#24AE5F" stroke-width="1.5" stroke-miterlimit="10" x1="24.855" y1="54.363" x2="30.987" y2="54.363"/>
	<line fill="none" stroke="#24AE5F" stroke-width="1.5" stroke-miterlimit="10" x1="24.855" y1="58.757" x2="30.987" y2="58.757"/>
	<line fill="none" stroke="#24AE5F" stroke-width="1.5" stroke-miterlimit="10" x1="24.855" y1="63.152" x2="30.987" y2="63.152"/>
</g>
<path fill="#FFFFFF" stroke="#24AE5F" stroke-width="1.4266" stroke-miterlimit="10" d="M76.056,68.802
	c0,0.473-0.423,0.855-0.944,0.855H40.539c-0.522,0-0.945-0.383-0.945-0.855V27.961c0-0.472,0.423-0.855,0.945-0.855h34.572
	c0.521,0,0.944,0.383,0.944,0.855V68.802z"/>
<g>
	<g>
		<path fill="#24AE5F" d="M57.824,43.011l4.652,2.686v5.371l-4.652,2.688l-4.652-2.688v-5.371L57.824,43.011 M57.824,41.857
			l-0.5,0.288l-4.652,2.686l-0.5,0.289v0.577v5.371v0.577l0.5,0.289l4.652,2.688l0.5,0.289l0.5-0.289l4.652-2.688l0.5-0.289v-0.577
			v-5.371V45.12l-0.5-0.289l-4.652-2.686L57.824,41.857L57.824,41.857z"/>
	</g>
</g>
</svg>
