<?xml version="1.0" encoding="utf-8"?>
<!-- Generator: Adobe Illustrator 18.1.1, SVG Export Plug-In . SVG Version: 6.00 Build 0)  -->
<svg version="1.1" id="Layer_1" xmlns="http://www.w3.org/2000/svg" xmlns:xlink="http://www.w3.org/1999/xlink" x="0px" y="0px"
	 viewBox="-211 215.1 76.8 70.9" enable-background="new -211 215.1 76.8 70.9" xml:space="preserve">
<g>
	<g>
		<g>
			<path fill="#FFFFFF" d="M-210.3,222.1c0-4,2.3-5.3,5.1-5.3c2.8,0,5.1,1.3,5.1,5.3"/>
			<path fill="#22AD5F" d="M-199.3,222.1h-1.5c0-3.1-1.4-4.6-4.4-4.6s-4.4,1.5-4.4,4.6h-1.5c0-3.9,2.1-6.1,5.9-6.1
				S-199.3,218.2-199.3,222.1z"/>
		</g>
		<g>
			<rect x="-210.3" y="222.1" fill="#FFFFFF" width="10.2" height="56"/>
			<path fill="#22AD5F" d="M-199.3,278.9h-11.8v-57.5h11.8V278.9z M-209.6,277.4h8.8v-54.5h-8.8V277.4z"/>
		</g>
		<g>
			<rect x="-206" y="222.1" fill="#22AD5F" width="1.5" height="51.3"/>
		</g>
		<g>
			<rect x="-208.4" y="222.1" fill="#22AD5F" width="1.5" height="51.7"/>
		</g>
		<g>
			<rect x="-203.6" y="222.1" fill="#22AD5F" width="1.5" height="51.8"/>
		</g>
		<g>
			<g>
				<path fill="#FFFFFF" d="M-200.1,279L-200.1,279C-200.1,279.1-200.1,279.1-200.1,279L-200.1,279z"/>
				<polygon fill="#22AD5F" points="-199.5,279.5 -200,279.1 -200.8,279.2 -200.9,278.8 -199.4,277 -199.3,279 -200,279.1 				"/>
			</g>
			<g>
				<path fill="#FFFFFF" d="M-210.3,279.1C-210.3,279.1-210.3,279.1-210.3,279.1L-210.3,279.1L-210.3,279.1z"/>
				<polygon fill="#22AD5F" points="-210.9,279.5 -210.5,279.1 -211.1,279.1 -211.1,277 -209.6,278.8 -209.6,279 -209.6,279.2 
					-210.5,279.1 				"/>
			</g>
			<g>
				<path fill="#FFFFFF" d="M-205.2,273.4c-2.8,0-5.1,1.6-5.1,5.6l5.1,5.8l5.1-5.8C-200.1,275-202.4,273.4-205.2,273.4z"/>
				<path fill="#22AD5F" d="M-205.2,286l-5.9-6.7l0-0.3c0-4,2.2-6.4,5.9-6.4s5.8,2.4,5.9,6.4l0,0.3L-205.2,286z M-209.6,278.8l4.4,5
					l4.4-5c-0.1-3-1.7-4.6-4.4-4.6S-209.5,275.8-209.6,278.8z"/>
			</g>
		</g>
	</g>
	<g>
		<g>
			<rect x="-192.3" y="215.8" fill="#FFFFFF" width="12.2" height="68.2"/>
			<path fill="#22AD5F" d="M-179.4,284.7h-13.7v-69.7h13.7V284.7z M-191.6,283.2h10.7v-66.7h-10.7V283.2z"/>
		</g>
		<g>
			<rect x="-186.2" y="220.3" fill="#22AD5F" width="6.1" height="1.5"/>
		</g>
		<g>
			<rect x="-186.2" y="224.7" fill="#22AD5F" width="6.1" height="1.5"/>
		</g>
		<g>
			<rect x="-186.2" y="229.1" fill="#22AD5F" width="6.1" height="1.5"/>
		</g>
		<g>
			<rect x="-186.2" y="233.5" fill="#22AD5F" width="6.1" height="1.5"/>
		</g>
		<g>
			<rect x="-186.2" y="237.9" fill="#22AD5F" width="6.1" height="1.5"/>
		</g>
		<g>
			<rect x="-186.2" y="242.3" fill="#22AD5F" width="6.1" height="1.5"/>
		</g>
		<g>
			<rect x="-186.2" y="246.7" fill="#22AD5F" width="6.1" height="1.5"/>
		</g>
		<g>
			<rect x="-186.2" y="251.1" fill="#22AD5F" width="6.1" height="1.5"/>
		</g>
		<g>
			<rect x="-186.2" y="255.5" fill="#22AD5F" width="6.1" height="1.5"/>
		</g>
		<g>
			<rect x="-186.2" y="259.9" fill="#22AD5F" width="6.1" height="1.5"/>
		</g>
		<g>
			<rect x="-186.2" y="264.3" fill="#22AD5F" width="6.1" height="1.5"/>
		</g>
		<g>
			<rect x="-186.2" y="268.7" fill="#22AD5F" width="6.1" height="1.5"/>
		</g>
		<g>
			<rect x="-186.2" y="273.1" fill="#22AD5F" width="6.1" height="1.5"/>
		</g>
		<g>
			<rect x="-186.2" y="277.5" fill="#22AD5F" width="6.1" height="1.5"/>
		</g>
	</g>
	<g>
		<path fill="#FFFFFF" d="M-134.8,283.9c0,0.5-0.4,0.9-0.9,0.9h-34.6c-0.5,0-0.9-0.4-0.9-0.9V243c0-0.5,0.4-0.9,0.9-0.9h34.6
			c0.5,0,0.9,0.4,0.9,0.9V283.9z"/>
		<path fill="#22AD5F" d="M-135.8,285.4h-34.6c-0.9,0-1.7-0.7-1.7-1.6V243c0-0.9,0.7-1.6,1.7-1.6h34.6c0.9,0,1.7,0.7,1.7,1.6v40.8
			C-134.1,284.7-134.9,285.4-135.8,285.4z M-170.4,242.9c-0.1,0-0.2,0.1-0.2,0.1v40.8c0,0.1,0.1,0.1,0.2,0.1h34.6
			c0.1,0,0.2-0.1,0.2-0.1V243c0-0.1-0.1-0.1-0.2-0.1H-170.4z"/>
	</g>
	<g>
		<g>
			<g>
				<polygon fill="#FFFFFF" points="-158.4,266.5 -158.4,260.4 -153.1,257.3 -147.7,260.4 -147.7,266.5 -153.1,269.6 				"/>
			</g>
			<g>
				<path fill="#22AD5F" d="M-153.1,258.1l4.7,2.7v5.4l-4.7,2.7l-4.7-2.7v-5.4L-153.1,258.1 M-153.1,256.4l-0.7,0.4l-4.7,2.7
					l-0.7,0.4v0.8v5.4v0.8l0.7,0.4l4.7,2.7l0.7,0.4l0.7-0.4l4.7-2.7l0.7-0.4v-0.8v-5.4v-0.8l-0.7-0.4l-4.7-2.7L-153.1,256.4
					L-153.1,256.4z"/>
			</g>
		</g>
	</g>
	<g>
		<path fill="#22AD5F" d="M-168.8,245.4c-0.4,0-0.7-0.3-0.7-0.7V240c0-0.4,0.3-0.7,0.7-0.7s0.7,0.3,0.7,0.7v4.6
			C-168.1,245-168.4,245.4-168.8,245.4z"/>
	</g>
	<g>
		<path fill="#22AD5F" d="M-165.3,245.4c-0.4,0-0.7-0.3-0.7-0.7V240c0-0.4,0.3-0.7,0.7-0.7s0.7,0.3,0.7,0.7v4.6
			C-164.6,245-164.9,245.4-165.3,245.4z"/>
	</g>
	<g>
		<path fill="#22AD5F" d="M-161.8,245.4c-0.4,0-0.7-0.3-0.7-0.7V240c0-0.4,0.3-0.7,0.7-0.7s0.7,0.3,0.7,0.7v4.6
			C-161.1,245-161.4,245.4-161.8,245.4z"/>
	</g>
	<g>
		<path fill="#22AD5F" d="M-158.3,245.3c-0.4,0-0.7-0.3-0.7-0.7V240c0-0.4,0.3-0.7,0.7-0.7s0.7,0.3,0.7,0.7v4.6
			C-157.6,245-157.9,245.3-158.3,245.3z"/>
	</g>
	<g>
		<path fill="#22AD5F" d="M-154.8,245.2c-0.4,0-0.7-0.3-0.7-0.7v-4.6c0-0.4,0.3-0.7,0.7-0.7s0.7,0.3,0.7,0.7v4.6
			C-154.1,244.9-154.4,245.2-154.8,245.2z"/>
	</g>
	<g>
		<path fill="#22AD5F" d="M-151.3,245.2c-0.4,0-0.7-0.3-0.7-0.7v-4.6c0-0.4,0.3-0.7,0.7-0.7s0.7,0.3,0.7,0.7v4.6
			C-150.6,244.9-150.9,245.2-151.3,245.2z"/>
	</g>
	<g>
		<path fill="#22AD5F" d="M-147.8,245.2c-0.4,0-0.7-0.3-0.7-0.7v-4.6c0-0.4,0.3-0.7,0.7-0.7s0.7,0.3,0.7,0.7v4.6
			C-147.1,244.9-147.4,245.2-147.8,245.2z"/>
	</g>
	<g>
		<path fill="#22AD5F" d="M-144.3,245.2c-0.4,0-0.7-0.3-0.7-0.7v-4.6c0-0.4,0.3-0.7,0.7-0.7s0.7,0.3,0.7,0.7v4.6
			C-143.6,244.9-143.9,245.2-144.3,245.2z"/>
	</g>
	<g>
		<path fill="#22AD5F" d="M-140.8,245.2c-0.4,0-0.7-0.3-0.7-0.7v-4.6c0-0.4,0.3-0.7,0.7-0.7s0.7,0.3,0.7,0.7v4.6
			C-140.1,244.9-140.5,245.2-140.8,245.2z"/>
	</g>
	<g>
		<path fill="#22AD5F" d="M-137.4,245.2c-0.4,0-0.7-0.3-0.7-0.7v-4.6c0-0.4,0.3-0.7,0.7-0.7s0.7,0.3,0.7,0.7v4.6
			C-136.6,244.9-137,245.2-137.4,245.2z"/>
	</g>
</g>
</svg>
