<?xml version="1.0" encoding="utf-8"?>
<!-- Generator: Adobe Illustrator 16.0.4, SVG Export Plug-In . SVG Version: 6.00 Build 0)  -->
<!DOCTYPE svg PUBLIC "-//W3C//DTD SVG 1.1//EN" "http://www.w3.org/Graphics/SVG/1.1/DTD/svg11.dtd">
<svg version="1.1" id="Layer_1" xmlns="http://www.w3.org/2000/svg" xmlns:xlink="http://www.w3.org/1999/xlink" x="0px" y="0px"
	 width="71.264px" height="54.902px" viewBox="0 0 71.264 54.902" enable-background="new 0 0 71.264 54.902" xml:space="preserve">
<g>
	<path fill="#FFFFFF" stroke="#24AE5F" stroke-width="1.4266" stroke-miterlimit="10" d="M56.943,39.92
		c0,0.443-0.652,0.803-1.457,0.803H2.17c-0.805,0-1.457-0.359-1.457-0.803V1.518c0-0.444,0.652-0.804,1.457-0.804h53.316
		c0.805,0,1.457,0.36,1.457,0.804V39.92z"/>
	
		<line fill="#FFFFFF" stroke="#24AE5F" stroke-width="1.4266" stroke-miterlimit="10" x1="0.713" y1="5.723" x2="56.943" y2="5.723"/>
	
		<line fill="#FFFFFF" stroke="#24AE5F" stroke-width="1.4266" stroke-miterlimit="10" x1="0.713" y1="35.723" x2="56.943" y2="35.723"/>
	<g>
		<g>
			<polygon fill="#FFFFFF" points="23.463,23.41 23.463,17.215 28.828,14.116 34.194,17.215 34.194,23.41 28.828,26.507 			"/>
			<path fill="#24AE5F" d="M28.828,14.939l4.652,2.688v5.371l-4.652,2.686l-4.652-2.686v-5.371L28.828,14.939 M28.828,13.292
				l-0.714,0.412l-4.652,2.688l-0.713,0.412v0.823v5.371v0.824l0.713,0.412l4.652,2.686l0.713,0.412l0.713-0.412l4.652-2.686
				l0.713-0.412v-0.824v-5.371v-0.823l-0.713-0.412l-4.652-2.688L28.828,13.292L28.828,13.292z"/>
		</g>
	</g>
	<path fill="#FFFFFF" stroke="#24AE5F" stroke-width="1.4266" stroke-miterlimit="10" d="M29.35,51.387c0,0,7.664,0,8.15,0
		s1.633-0.012,1.459-1.406c-0.148-1.188-0.783-1.033-1.176-1.176c-1.703-1.992-2.23-7.744-2.23-7.744H29.35h-0.033h-6.204
		c0,0-0.526,5.752-2.229,7.744c-0.393,0.143-1.028-0.012-1.176,1.176c-0.174,1.395,0.973,1.406,1.46,1.406c0.486,0,8.149,0,8.149,0
		H29.35z"/>
	<path fill="#FFFFFF" stroke="#FFFFFF" stroke-width="1.4266" stroke-miterlimit="10" d="M70.551,53.287
		c0,0.5-0.316,0.902-0.705,0.902H44.043c-0.389,0-0.705-0.402-0.705-0.902V10.16c0-0.499,0.316-0.903,0.705-0.903h25.803
		c0.389,0,0.705,0.404,0.705,0.903V53.287z"/>
	<g>
		<path fill="#FFFFFF" stroke="#24AE5F" stroke-width="1.4266" stroke-miterlimit="10" d="M70.059,51.262
			c0,0.443-0.281,0.803-0.627,0.803H46.457c-0.348,0-0.629-0.359-0.629-0.803V12.859c0-0.444,0.281-0.804,0.629-0.804h22.975
			c0.346,0,0.627,0.36,0.627,0.804V51.262z"/>
		<g>
			<g>
				<polygon fill="#FFFFFF" points="52.578,35.158 52.578,28.963 57.943,25.864 63.309,28.963 63.309,35.158 57.943,38.255 				"/>
				<path fill="#24AE5F" d="M57.943,26.688l4.652,2.688v5.371l-4.652,2.686l-4.652-2.686v-5.371L57.943,26.688 M57.943,25.04
					l-0.714,0.412l-4.652,2.688l-0.713,0.412v0.823v5.371v0.824l0.714,0.411l4.652,2.686l0.713,0.412l0.713-0.412l4.652-2.686
					l0.714-0.411v-0.824v-5.371v-0.823L63.31,28.14l-4.652-2.688L57.943,25.04L57.943,25.04z"/>
			</g>
		</g>
		
			<line fill="#FFFFFF" stroke="#24AE5F" stroke-width="1.4266" stroke-miterlimit="10" x1="45.828" y1="16.916" x2="70.059" y2="16.916"/>
		
			<line fill="#FFFFFF" stroke="#24AE5F" stroke-width="1.4266" stroke-miterlimit="10" x1="45.828" y1="46.916" x2="70.059" y2="46.916"/>
	</g>
</g>
</svg>
