<?xml version="1.0" encoding="utf-8"?>
<!-- Generator: Adobe Illustrator 18.1.1, SVG Export Plug-In . SVG Version: 6.00 Build 0)  -->
<svg version="1.1" id="Layer_1" xmlns="http://www.w3.org/2000/svg" xmlns:xlink="http://www.w3.org/1999/xlink" x="0px" y="0px"
	 viewBox="-213 223.1 71.3 54.9" enable-background="new -213 223.1 71.3 54.9" xml:space="preserve">
<g>
	<g>
		<path fill="#FFFFFF" d="M-155.9,264c0,0.4-0.7,0.8-1.5,0.8h-53.3c-0.8,0-1.5-0.4-1.5-0.8v-38.4c0-0.4,0.7-0.8,1.5-0.8h53.3
			c0.8,0,1.5,0.4,1.5,0.8V264z"/>
		<path fill="#22AD5F" d="M-157.3,265.5h-53.3c-1.2,0-2.2-0.7-2.2-1.5v-38.4c0-0.9,0.9-1.5,2.2-1.5h53.3c1.2,0,2.2,0.7,2.2,1.5V264
			C-155.2,264.9-156.1,265.5-157.3,265.5z M-211.4,263.9c0.1,0.1,0.3,0.2,0.7,0.2h53.3c0.4,0,0.7-0.1,0.7-0.2v-38.2
			c-0.1-0.1-0.3-0.2-0.7-0.2h-53.3c-0.4,0-0.7,0.1-0.7,0.2V263.9z"/>
	</g>
	<g>
		<line fill="#FFFFFF" x1="-212.1" y1="229.8" x2="-155.9" y2="229.8"/>
		<rect x="-212.1" y="229.1" fill="#22AD5F" width="56.2" height="1.4"/>
	</g>
	<g>
		<line fill="#FFFFFF" x1="-212.1" y1="259.8" x2="-155.9" y2="259.8"/>
		<rect x="-212.1" y="259.1" fill="#22AD5F" width="56.2" height="1.4"/>
	</g>
	<g>
		<g>
			<g>
				<polygon fill="#FFFFFF" points="-189.4,247.5 -189.4,241.3 -184,238.2 -178.6,241.3 -178.6,247.5 -184,250.6 				"/>
			</g>
			<g>
				<path fill="#22AD5F" d="M-184,239l4.7,2.7v5.4l-4.7,2.7l-4.7-2.7v-5.4L-184,239 M-184,237.4l-0.7,0.4l-4.7,2.7l-0.7,0.4v0.8v5.4
					v0.8l0.7,0.4l4.7,2.7l0.7,0.4l0.7-0.4l4.7-2.7l0.7-0.4v-0.8v-5.4v-0.8l-0.7-0.4l-4.7-2.7L-184,237.4L-184,237.4z"/>
			</g>
		</g>
	</g>
	<g>
		<path fill="#FFFFFF" d="M-183.5,275.5c0,0,7.7,0,8.2,0c0.5,0,1.6,0,1.5-1.4c-0.1-1.2-0.8-1-1.2-1.2c-1.7-2-2.2-7.7-2.2-7.7h-6.2h0
			h-6.2c0,0-0.5,5.8-2.2,7.7c-0.4,0.1-1,0-1.2,1.2c-0.2,1.4,1,1.4,1.5,1.4C-191.2,275.5-183.5,275.5-183.5,275.5L-183.5,275.5z"/>
		<path fill="#22AD5F" d="M-175.3,276.2h-16.3c-0.4,0-1.2,0-1.8-0.6c-0.3-0.4-0.5-0.9-0.4-1.6c0.2-1.4,1-1.6,1.5-1.7
			c1.2-1.6,1.8-5.7,1.9-7.2l0.1-0.6h13.7l0.1,0.6c0.1,1.5,0.7,5.5,1.9,7.2c0.4,0.1,1.3,0.3,1.5,1.7c0.1,0.7-0.1,1.2-0.4,1.6
			C-174.1,276.2-175,276.2-175.3,276.2z M-189.1,265.9c-0.2,1.6-0.8,5.8-2.3,7.5l-0.1,0.1l-0.2,0.1c-0.1,0-0.2,0.1-0.4,0.1
			c-0.3,0-0.3,0.1-0.4,0.5c0,0.2,0,0.4,0.1,0.5c0.1,0.1,0.5,0.1,0.7,0.1h16.3c0.2,0,0.6,0,0.7-0.1c0.1-0.1,0.1-0.2,0.1-0.5
			c-0.1-0.4-0.1-0.5-0.4-0.5c-0.1,0-0.2-0.1-0.4-0.1l-0.2-0.1l-0.1-0.1c-1.5-1.7-2.1-5.9-2.3-7.5H-189.1z"/>
	</g>
	<g>
		<path fill="#FFFFFF" d="M-142.3,277.4c0,0.5-0.3,0.9-0.7,0.9h-25.8c-0.4,0-0.7-0.4-0.7-0.9v-43.1c0-0.5,0.3-0.9,0.7-0.9h25.8
			c0.4,0,0.7,0.4,0.7,0.9V277.4z"/>
		<path fill="#FFFFFF" d="M-143,279h-25.8c-0.8,0-1.4-0.7-1.4-1.6v-43.1c0-0.9,0.6-1.6,1.4-1.6h25.8c0.8,0,1.4,0.7,1.4,1.6v43.1
			C-141.6,278.3-142.2,279-143,279z M-168.8,234.1c0,0,0,0.1,0,0.2v43.1c0,0.1,0,0.2,0.1,0.2l25.7,0c0,0,0-0.1,0-0.2v-43.1
			c0-0.1,0-0.2-0.1-0.2L-168.8,234.1z"/>
	</g>
	<g>
		<g>
			<path fill="#FFFFFF" d="M-142.8,275.4c0,0.4-0.3,0.8-0.6,0.8h-23c-0.3,0-0.6-0.4-0.6-0.8V237c0-0.4,0.3-0.8,0.6-0.8h23
				c0.3,0,0.6,0.4,0.6,0.8V275.4z"/>
			<path fill="#22AD5F" d="M-143.4,276.9h-23c-0.7,0-1.3-0.7-1.3-1.5V237c0-0.8,0.6-1.5,1.3-1.5h23c0.7,0,1.3,0.7,1.3,1.5v38.4
				C-142.1,276.2-142.7,276.9-143.4,276.9z M-166.3,275.5h22.8c0,0,0-0.1,0-0.1V237c0,0,0-0.1,0-0.1h-22.8c0,0,0,0.1,0,0.1
				L-166.3,275.5C-166.3,275.4-166.3,275.4-166.3,275.5z"/>
		</g>
		<g>
			<g>
				<g>
					<polygon fill="#FFFFFF" points="-160.3,259.3 -160.3,253.1 -154.9,250 -149.5,253.1 -149.5,259.3 -154.9,262.4 					"/>
				</g>
				<g>
					<path fill="#22AD5F" d="M-154.9,250.8l4.7,2.7v5.4l-4.7,2.7l-4.7-2.7v-5.4L-154.9,250.8 M-154.9,249.1l-0.7,0.4l-4.7,2.7
						l-0.7,0.4v0.8v5.4v0.8l0.7,0.4l4.7,2.7l0.7,0.4l0.7-0.4l4.7-2.7l0.7-0.4v-0.8v-5.4v-0.8l-0.7-0.4l-4.7-2.7L-154.9,249.1
						L-154.9,249.1z"/>
				</g>
			</g>
		</g>
		<g>
			<line fill="#FFFFFF" x1="-167" y1="241" x2="-142.8" y2="241"/>
			<rect x="-167" y="240.3" fill="#22AD5F" width="24.2" height="1.4"/>
		</g>
		<g>
			<line fill="#FFFFFF" x1="-167" y1="271" x2="-142.8" y2="271"/>
			<rect x="-167" y="270.3" fill="#22AD5F" width="24.2" height="1.4"/>
		</g>
	</g>
</g>
</svg>
