<?xml version="1.0" encoding="utf-8"?>
<!-- Generator: Adobe Illustrator 18.1.1, SVG Export Plug-In . SVG Version: 6.00 Build 0)  -->
<svg version="1.1" id="Layer_1" xmlns="http://www.w3.org/2000/svg" xmlns:xlink="http://www.w3.org/1999/xlink" x="0px" y="0px"
	 viewBox="-220 223 58.1 56" enable-background="new -220 223 58.1 56" xml:space="preserve">
<g>
	<g>
		<path fill="#FFFFFF" d="M-162.7,240.8c-0.3-1.2-1.8-1.6-2.8-0.7c-0.2,0.2-0.4,0.4-0.7,0.7c-0.4-0.7-0.8-1.3-1.2-2
			c-0.1-0.2,0-0.4-0.1-0.6c-0.1-0.4-0.1-0.8-0.2-1.2c-0.4-1.2-1.2-2.3-1.9-3.3c-1.1-1.5-2.5-2.8-3.9-4c-1.9-1.6-3.9-3.1-6.2-4.2
			c-1.6-0.8-3.3-1.4-5.1-1.6c-0.2,0-0.3,0-0.5-0.1c-0.6,0-1.2,0-1.8,0c-0.5,0.1-1,0.2-1.4,0.3c-0.4,0.1-0.8,0.3-1.2,0.4
			c-0.1,0-0.2,0.2-0.2,0.2c0,0.1,0.1,0.2,0.2,0.2c0.5,0.1,1.1,0.3,1.6,0.4c2,0.4,3.8,1,5.5,2.2c1.1,0.8,2,1.7,2.5,3
			c0.4,1,0.5,2.1,0,3.1c-0.1,0.2-0.3,0.5-0.5,0.7c-0.3,0.5-0.6,1-0.4,1.6c0.1,0.3,0.2,0.6,0.4,0.9c-3.6,3.7-7.3,7.5-10.9,11.3
			c-0.4-0.4-0.9-0.8-1.3-1.2c-1.5-1.4-2.9-2.8-4.4-4.1c-0.1-0.1-0.1-0.2-0.1-0.3c0.5-1.3,0.7-2.6,0.7-4c-0.1-4.6-2.2-8.1-6.3-10.4
			c-1.6-0.9-3.4-1.3-5.3-1.4c-0.4,0-0.8,0-1.2,0c-0.5,0-0.8,0.2-1,0.6c-0.2,0.4-0.1,0.8,0.3,1.2c1.8,1.8,3.7,3.6,5.5,5.5
			c0.2,0.2,0.2,0.3,0.2,0.5c-0.5,1.8-0.9,3.5-1.4,5.3c0,0.1-0.1,0.2-0.2,0.2c-1.9,0.5-3.7,1-5.6,1.6c-0.2,0.1-0.3,0-0.4-0.2
			c-1.8-1.8-3.6-3.6-5.5-5.4c-0.5-0.5-1.1-0.5-1.5-0.1c-0.2,0.2-0.3,0.5-0.4,0.7c0,0.6,0,1.3,0,1.9c0.1,0.4,0.1,0.9,0.2,1.3
			c0.8,4.5,4.5,8.2,8.9,9.2c2.3,0.5,4.5,0.4,6.7-0.4c0.1,0,0.2-0.1,0.3,0.1c1.3,1.3,2.6,2.7,3.8,4c0.3,0.3,0.6,0.6,0.9,0.9
			c-0.7,0.6-1.3,1.2-1.9,1.7c-3.6,3.2-7.2,6.4-10.8,9.6c-1.8,1.6-3.6,3.3-5.5,4.8c-1.5,1.2-1.7,3.8-0.2,5.2c0.8,0.7,1.5,1.5,2.3,2.2
			c0.6,0.6,1.4,1,2.3,1.1c0.1,0,0.1,0,0.1,0c0.2,0,0.5,0,0.7,0c0.2-0.1,0.5-0.1,0.7-0.2c0.5-0.1,1-0.4,1.4-0.8
			c3.1-3.5,6.2-7,9.3-10.4c2.2-2.5,4.4-4.9,6.6-7.4c0.1-0.1,0.2-0.2,0.3-0.3c0.3,0.3,0.6,0.6,0.9,0.9c2.6,2.7,5.1,5.3,7.7,8
			c2.5,2.5,4.9,5.1,7.4,7.7c0.7,0.7,1.4,1.5,2.3,1.9c0.7,0.3,1.4,0.6,2.1,0.7c0.1,0,0.1,0,0.1,0c0.3,0,0.5,0,0.8,0
			c0.3-0.1,0.7-0.1,1-0.2c2-0.7,3.3-2,3.6-4.1c0.2-1.3-0.2-2.5-0.9-3.6c-0.6-0.9-1.4-1.6-2.1-2.3c-3.1-3-6.2-5.9-9.4-8.9
			c-2.7-2.5-5.4-5.1-8.1-7.6c0,0-0.1-0.1-0.2-0.1c3.6-3.8,7.2-7.5,10.8-11.2c0.3,0.2,0.5,0.3,0.8,0.5c0.8,0.4,1.6,0.5,2.4,0.1
			c0.3-0.1,0.6-0.1,0.8,0c0.3,0.1,0.7,0.2,0.9,0.4c1.1,0.7,2.1,1.4,3.2,2.1c-0.2,0.2-0.4,0.4-0.5,0.5c-0.6,0.6-0.6,1.7,0,2.3
			c0.6,0.6,1.7,0.7,2.3,0c1-1,2-2,3-2.9c0.3-0.3,0.6-0.6,0.8-0.8c0.4-0.3,0.5-0.7,0.6-1.2c0-0.1,0-0.1,0-0.2
			C-162.6,241-162.7,240.9-162.7,240.8z"/>
		<path fill="#22AD5F" d="M-171.6,279l-1.2-0.1c-0.8-0.1-1.5-0.3-2.3-0.7c-1-0.5-1.8-1.3-2.5-2.1c-1.8-1.9-3.6-3.8-5.5-5.7l-4-4.2
			c-1.9-1.9-3.7-3.9-5.6-5.8c-0.1-0.1-0.3-0.3-0.4-0.4l-9.2,10.3c-2.2,2.4-4.4,4.9-6.6,7.3c-0.5,0.5-1,0.9-1.7,1.1
			c-0.2,0-0.4,0.1-0.5,0.1l-0.4,0.1l-1-0.1c-1-0.1-1.9-0.6-2.6-1.3l-0.3-0.4c-0.6-0.6-1.2-1.3-1.9-1.9c-0.8-0.8-1.3-1.9-1.3-3.1
			c0-1.2,0.6-2.4,1.5-3.1c1.3-1.1,2.6-2.2,3.8-3.3c0.5-0.5,1.1-1,1.6-1.5l12.2-10.8l-1.3-1.3c-0.9-1-1.9-1.9-2.8-2.9
			c-2.2,0.7-4.5,0.8-6.9,0.3c-4.7-1-8.6-5.1-9.5-9.8c-0.1-0.3-0.1-0.6-0.2-0.9l-0.1-0.5v-2.1l0.1-0.1c0-0.1,0.1-0.1,0.1-0.2
			c0.1-0.2,0.2-0.5,0.4-0.7c0.7-0.7,1.8-0.6,2.5,0.1c1.8,1.8,3.6,3.6,5.4,5.4l2.1-0.6c1-0.3,2-0.6,3.1-0.8c0.2-0.8,0.4-1.6,0.6-2.4
			c0.2-0.9,0.4-1.7,0.7-2.6c-1.4-1.4-2.8-2.8-4.2-4.2l-1.2-1.2c-0.6-0.5-0.7-1.2-0.4-1.9c0.3-0.7,0.8-1.1,1.6-1.1c0.3,0,0.7,0,1,0
			l0.3,0c2,0,3.9,0.5,5.6,1.5c4.3,2.4,6.5,6.1,6.6,11c0,1.3-0.2,2.7-0.6,4c1.1,1,2.1,2,3.2,3l1.8,1.7l10.1-10.4
			c-0.1-0.2-0.2-0.3-0.2-0.5c-0.3-1,0.2-1.8,0.5-2.2c0.1-0.1,0.1-0.2,0.2-0.3c0.1-0.1,0.2-0.2,0.2-0.3c0.4-0.7,0.4-1.5,0-2.5
			c-0.4-1-1.1-1.9-2.2-2.7c-1.4-1-3-1.6-5.2-2.1c-0.5-0.1-1.1-0.2-1.6-0.4c-0.3-0.1-0.7-0.4-0.8-0.9c0-0.4,0.3-0.8,0.6-0.9
			c0.5-0.2,0.9-0.3,1.3-0.5c0.3-0.1,0.7-0.2,1.1-0.2l0.6-0.1l2.1,0c0.1,0,0.2,0,0.3,0.1c1.8,0.2,3.5,0.8,5.3,1.7
			c2.1,1,4.2,2.5,6.3,4.3c1.3,1.2,2.9,2.5,4,4.1l0.2,0.2c0.7,1,1.4,2,1.9,3.3c0.1,0.3,0.2,0.7,0.2,1c0,0.1,0,0.2,0,0.3
			c0,0.1,0,0.2,0,0.3c0,0,0,0.1,0,0.1c0.2,0.3,0.4,0.7,0.6,1.1c0,0,0,0,0.1,0c0.5-0.4,1-0.7,1.7-0.7c1.1,0,2,0.7,2.3,1.7
			c0,0.1,0.1,0.2,0.1,0.3l0,0.5l0,0.1c-0.1,0.7-0.4,1.2-0.8,1.6c-0.2,0.2-0.4,0.4-0.6,0.6l-1.1,1.1c-0.7,0.7-1.4,1.4-2.1,2
			c-0.4,0.4-1,0.7-1.6,0.7c0,0,0,0,0,0c-0.6,0-1.3-0.3-1.7-0.7c-0.9-0.9-0.9-2.3-0.1-3.2l-0.2-0.1c-0.8-0.5-1.5-1-2.3-1.5
			c-0.2-0.1-0.5-0.2-0.7-0.3c-0.2-0.1-0.3-0.1-0.3,0c-1,0.5-2,0.4-3-0.1c-0.1-0.1-0.2-0.1-0.3-0.2l-9.9,10.2l17.4,16.4
			c0.7,0.6,1.4,1.3,1.9,2.1c0.9,1.4,1.2,2.7,1,4c-0.3,2.3-1.7,3.8-4,4.6c-0.3,0.1-0.5,0.1-0.8,0.2L-171.6,279z M-172.4,277.6h0.6
			c0.1,0,0.2,0,0.3-0.1c0.2,0,0.4-0.1,0.6-0.1c1.8-0.6,2.8-1.8,3.1-3.5c0.1-1-0.1-2-0.8-3.1c-0.4-0.7-1.1-1.3-1.7-1.9l-0.3-0.3
			l-17.4-16.5l-0.7-0.5l0.7-0.8l11.1-11.4l0.7,0.5c0.2,0.1,0.3,0.2,0.5,0.3c0.6,0.3,1.2,0.4,1.7,0.1c0.4-0.2,0.9-0.2,1.4,0
			c0.4,0.1,0.7,0.3,1.1,0.5c0.8,0.5,1.5,1,2.3,1.5l1.7,1.1l-0.8,0.8c-0.1,0.1-0.2,0.2-0.3,0.3c-0.4,0.4-0.4,1,0,1.3
			c0.2,0.2,0.4,0.3,0.7,0.3l0,0c0.2,0,0.5-0.1,0.6-0.3c0.7-0.7,1.4-1.4,2-2l1.1-1.1c0.2-0.2,0.4-0.4,0.6-0.6
			c0.2-0.2,0.3-0.4,0.4-0.7l0,0c0-0.1,0-0.2-0.1-0.2c-0.1-0.5-0.6-0.7-0.9-0.7c-0.2,0-0.4,0-0.7,0.3c-0.1,0.1-0.3,0.3-0.4,0.4
			l-0.9,0.9l-0.8-1.4c-0.3-0.5-0.6-0.9-0.8-1.4c-0.1-0.3-0.2-0.5-0.2-0.7c0,0,0-0.1,0-0.1c0-0.1,0-0.3,0-0.4c0-0.3-0.1-0.5-0.1-0.7
			c-0.4-1-1-2-1.7-2.9l-0.2-0.2c-1.1-1.5-2.5-2.8-3.8-3.9c-2.1-1.8-4-3.1-6-4.1c-1.7-0.8-3.3-1.4-4.9-1.6c-0.1,0-0.2,0-0.4-0.1
			l-0.1,0h-1.7l-0.4,0.1c-0.1,0-0.3,0-0.4,0.1c2.3,0.5,4.1,1.2,5.6,2.3c1.3,1,2.2,2,2.7,3.3c0.5,1.3,0.5,2.5-0.1,3.6
			c-0.1,0.2-0.2,0.4-0.3,0.5c-0.1,0.1-0.1,0.2-0.2,0.2c-0.3,0.5-0.4,0.8-0.3,1.1c0,0.2,0.1,0.3,0.2,0.5c0,0.1,0.1,0.2,0.1,0.3
			l0.2,0.4l-11.8,12.2l-2.8-2.6c-1.1-1.1-2.2-2.1-3.4-3.2c-0.3-0.3-0.4-0.7-0.2-1.1c0.5-1.3,0.7-2.5,0.6-3.7
			c-0.1-4.4-2.1-7.6-5.9-9.8c-1.5-0.8-3.1-1.3-4.9-1.3l-0.3,0c-0.3,0-0.6,0-0.9,0c-0.3,0-0.3,0.1-0.3,0.2c0,0.1-0.1,0.2,0.1,0.4
			l1.2,1.2c1.4,1.4,2.8,2.8,4.2,4.2c0.4,0.3,0.5,0.7,0.3,1.2c-0.2,0.9-0.5,1.8-0.7,2.7c-0.2,0.9-0.4,1.8-0.7,2.6
			c-0.1,0.3-0.4,0.6-0.7,0.7c-1.1,0.3-2.2,0.6-3.3,0.9l-2.3,0.6c-0.5,0.2-1-0.2-1.1-0.3c-1.8-1.8-3.6-3.6-5.5-5.4
			c-0.1-0.1-0.2-0.2-0.3-0.2c0,0-0.1,0-0.1,0.1c0,0-0.1,0.2-0.1,0.3c0,0,0,0.1-0.1,0.1v1.7l0.1,0.3c0,0.3,0.1,0.6,0.2,0.9
			c0.8,4.2,4.2,7.7,8.4,8.6c2.2,0.5,4.3,0.4,6.3-0.4c0.2-0.1,0.6-0.2,1.1,0.2c1,1,2,2.1,3,3.1l2.3,2.4l-13.3,11.8
			c-0.5,0.5-1.1,1-1.6,1.5c-1.3,1.1-2.5,2.3-3.9,3.4c-0.6,0.5-0.9,1.2-1,2.1c0,0.8,0.3,1.5,0.8,2c0.7,0.6,1.3,1.3,1.9,1.9l0.3,0.4
			c0.5,0.5,1.1,0.8,1.8,0.9c0.1,0,0.1,0,0.2,0l0.7,0c0.2,0,0.3-0.1,0.5-0.1c0.4-0.1,0.7-0.3,1-0.6c2.2-2.4,4.4-4.9,6.6-7.3
			l10.2-11.4l0.8,0.8c0.2,0.2,0.4,0.4,0.7,0.6c1.9,1.9,3.7,3.9,5.6,5.8l4,4.2c1.8,1.9,3.7,3.8,5.5,5.7c0.6,0.7,1.3,1.4,2.1,1.8
			c0.6,0.3,1.2,0.5,1.8,0.6C-172.5,277.5-172.4,277.6-172.4,277.6z"/>
	</g>
	<g>
		<g>
			<polygon fill="#FFFFFF" points="-174.9,271.8 -172.4,270.4 -169.9,271.8 -169.9,274.7 -172.4,276.1 -174.9,274.7 			"/>
			<path fill="#22AD5F" d="M-172.4,276.9l-3.2-1.8v-3.7l3.2-1.8l3.2,1.8v3.7L-172.4,276.9z M-174.2,274.2l1.8,1l1.8-1v-2l-1.8-1
				l-1.8,1V274.2z"/>
		</g>
	</g>
</g>
</svg>
