<?xml version="1.0" encoding="utf-8"?>
<!-- Generator: Adobe Illustrator 16.0.4, SVG Export Plug-In . SVG Version: 6.00 Build 0)  -->
<!DOCTYPE svg PUBLIC "-//W3C//DTD SVG 1.1//EN" "http://www.w3.org/Graphics/SVG/1.1/DTD/svg11.dtd">
<svg version="1.1" id="Layer_1" xmlns="http://www.w3.org/2000/svg" xmlns:xlink="http://www.w3.org/1999/xlink" x="0px" y="0px"
	 width="58.11px" height="56px" viewBox="0 0 58.11 56" enable-background="new 0 0 58.11 56" xml:space="preserve">
<path fill="#FFFFFF" stroke="#24AE5F" stroke-width="1.4266" stroke-miterlimit="10" d="M57.304,17.757
	c-0.347-1.206-1.844-1.6-2.758-0.723c-0.215,0.205-0.409,0.431-0.665,0.702c-0.417-0.69-0.819-1.318-1.179-1.971
	c-0.094-0.169-0.049-0.412-0.08-0.62c-0.061-0.406-0.073-0.83-0.205-1.213c-0.421-1.223-1.18-2.259-1.913-3.308
	c-1.082-1.546-2.486-2.774-3.899-3.993c-1.896-1.635-3.918-3.089-6.165-4.211c-1.613-0.805-3.296-1.393-5.09-1.634
	c-0.158-0.021-0.316-0.049-0.475-0.074c-0.613,0-1.227,0-1.84,0c-0.476,0.091-0.957,0.157-1.423,0.28
	c-0.415,0.11-0.816,0.275-1.216,0.435c-0.085,0.034-0.194,0.152-0.19,0.228c0.004,0.072,0.128,0.178,0.216,0.201
	c0.531,0.133,1.066,0.251,1.602,0.366c1.961,0.42,3.839,1.044,5.494,2.216c1.096,0.775,1.988,1.726,2.477,3
	c0.392,1.022,0.464,2.054-0.04,3.065c-0.124,0.248-0.308,0.465-0.454,0.703c-0.308,0.5-0.561,1.025-0.389,1.63
	c0.081,0.29,0.239,0.557,0.377,0.865c-3.626,3.748-7.272,7.517-10.941,11.309c-0.44-0.415-0.864-0.814-1.288-1.215
	c-1.463-1.38-2.922-2.762-4.392-4.135c-0.132-0.123-0.111-0.217-0.062-0.35c0.467-1.292,0.719-2.629,0.678-3.999
	c-0.138-4.627-2.231-8.098-6.269-10.363c-1.62-0.909-3.39-1.346-5.251-1.377c-0.413-0.007-0.828,0.002-1.241,0.02
	c-0.45,0.019-0.8,0.215-0.972,0.649c-0.176,0.442-0.063,0.828,0.269,1.158c1.828,1.82,3.654,3.644,5.488,5.458
	c0.158,0.157,0.212,0.288,0.153,0.513c-0.459,1.767-0.901,3.539-1.36,5.307c-0.024,0.095-0.139,0.211-0.233,0.237
	c-1.87,0.524-3.744,1.035-5.615,1.556c-0.185,0.051-0.283-0.038-0.396-0.15c-1.818-1.817-3.638-3.634-5.459-5.449
	c-0.473-0.471-1.096-0.535-1.512-0.104c-0.181,0.186-0.251,0.479-0.371,0.724c0,0.65,0,1.299,0,1.949
	c0.071,0.433,0.137,0.866,0.216,1.297c0.821,4.461,4.471,8.223,8.907,9.202c2.273,0.502,4.507,0.391,6.705-0.379
	c0.13-0.045,0.214-0.052,0.326,0.065c1.276,1.339,2.561,2.669,3.842,4.001c0.294,0.305,0.586,0.611,0.896,0.936
	c-0.652,0.579-1.296,1.15-1.94,1.722c-3.61,3.201-7.22,6.401-10.83,9.602c-1.822,1.615-3.601,3.283-5.481,4.827
	C1.87,47.929,1.66,50.467,3.186,51.88c0.781,0.723,1.521,1.489,2.269,2.247c0.627,0.635,1.377,1,2.258,1.109
	c0.051,0.006,0.099,0.032,0.148,0.049c0.234,0,0.469,0,0.703,0c0.244-0.055,0.491-0.099,0.731-0.165
	c0.532-0.147,0.978-0.423,1.353-0.844c3.105-3.486,6.222-6.963,9.334-10.444c2.204-2.466,4.408-4.933,6.611-7.399
	c0.102-0.113,0.206-0.225,0.295-0.321c0.323,0.307,0.646,0.59,0.944,0.898c2.576,2.663,5.146,5.331,7.719,7.997
	c2.46,2.55,4.924,5.096,7.376,7.652c0.701,0.731,1.4,1.454,2.314,1.926c0.663,0.343,1.354,0.582,2.101,0.652
	c0.051,0.005,0.099,0.032,0.148,0.048c0.271,0,0.541,0,0.812,0c0.331-0.072,0.674-0.112,0.992-0.222
	c1.961-0.676,3.256-1.974,3.576-4.069c0.197-1.292-0.229-2.47-0.921-3.559c-0.574-0.904-1.377-1.592-2.143-2.316
	c-3.123-2.956-6.247-5.912-9.371-8.866c-2.685-2.541-5.371-5.08-8.057-7.619c-0.039-0.036-0.088-0.062-0.158-0.111
	c3.632-3.754,7.233-7.477,10.843-11.205c0.267,0.169,0.515,0.345,0.78,0.491c0.773,0.426,1.574,0.49,2.383,0.108
	c0.286-0.135,0.565-0.119,0.839-0.021c0.321,0.115,0.652,0.229,0.937,0.41c1.055,0.673,2.091,1.372,3.184,2.094
	c-0.22,0.211-0.383,0.361-0.537,0.519c-0.638,0.649-0.645,1.667-0.017,2.314c0.627,0.647,1.689,0.674,2.338,0.038
	c0.992-0.973,1.972-1.957,2.957-2.937c0.281-0.279,0.556-0.567,0.849-0.834c0.357-0.324,0.528-0.736,0.622-1.193
	c0-0.054,0-0.108,0-0.162C57.367,18.016,57.341,17.885,57.304,17.757z"/>
<g>
	<polygon fill="#FFFFFF" stroke="#24AE5F" stroke-width="1.4266" stroke-miterlimit="10" points="45.103,48.789 47.589,47.352 
		50.075,48.789 50.075,51.658 47.589,53.093 45.103,51.658 	"/>
</g>
</svg>
